# AST/ASF file generated using VICON BodyLanguage
# -----------------------------------------------
:version 1.10
:name VICON
:units
  mass 1.0
  length 0.45
  angle deg
:documentation
   .ast/.asf automatically generated from VICON data using
   VICON BodyBuilder and BodyLanguage model FoxedUp or BRILLIANT.MOD
:root
   order TX TY TZ RX RY RZ
   axis XYZ
   position 0 0 0  
   orientation 0 0 0 
:bonedata
  begin
     id 1 
     name lhipjoint
     direction 0.621036 -0.695554 0.361275 
     length 2.46325 
     axis 0 0 0  XYZ
  end
  begin
     id 2 
     name lfemur
     direction 0.34202 -0.939693 0  
     length 6.54784  
     axis 0 0 20  XYZ
    dof rx ry rz
    limits (-160.0 20.0)
           (-70.0 70.0)
           (-60.0 70.0)
  end
  begin
     id 3 
     name ltibia
     direction 0.34202 -0.939693 0   
     length 7.84737   
     axis 0 0 20   XYZ
    dof rx
    limits (-10.0 170.0)
  end
  begin
     id 4 
     name lfoot
     direction 0.0790693 -0.217241 0.97291   
     length 2.59747   
     axis -90 7.62852e-016 20   XYZ
    dof rx rz
    limits (-45.0 90.0)
           (-70.0 20.0)
  end
  begin
     id 5 
     name ltoes
     direction 1.53572e-011 -4.21898e-011 1   
     length 1.29919   
     axis -90 7.62852e-016 20   XYZ
    dof rx
    limits (-90.0 20.0)
  end
  begin
     id 6 
     name rhipjoint
     direction -0.602353 -0.708375 0.367935   
     length 2.41867  
     axis 0 0 0  XYZ 
  end
  begin
     id 7 
     name rfemur
     direction -0.34202 -0.939693 0   
     length 6.92065   
     axis 0 0 -20   XYZ
    dof rx ry rz
    limits (-160.0 20.0)
           (-70.0 70.0)
           (-70.0 60.0)
  end
  begin
     id 8 
     name rtibia
     direction -0.34202 -0.939693 0   
     length 7.88883   
     axis 0 0 -20   XYZ
    dof rx
    limits (-10.0 170.0)
 end
 begin
     id 9 
     name rfoot
     direction -0.0768692 -0.211196 0.974416   
     length 2.43714  
     axis -90 -7.62852e-016 -20   XYZ
    dof rx rz
    limits (-45.0 90.0)
           (-20.0 70.0)
  end
  begin
     id 10 
     name rtoes
     direction -1.53575e-011 -4.21933e-011 1   
     length 1.22113   
     axis -90 -7.62852e-016 -20   XYZ
    dof rx
    limits (-90.0 20.0)
  end
  begin
     id 11 
     name lowerback
     direction 0.0197937 0.98943 -0.143655   
     length 2.16931   
     axis 0 0 0   XYZ
    dof rx ry rz
    limits (-20.0 45.0)
           (-30.0 30.0)
           (-30.0 30.0)
  end
  begin
     id 12 
     name upperback
     direction -0.00183968 0.999975 0.00684288   
     length 2.17221   
     axis 0 0 0   XYZ
    dof rx ry rz
    limits (-20.0 45.0)
           (-30.0 30.0)
           (-30.0 30.0)
  end
  begin
     id 13 
     name thorax
     direction -0.00950244 0.997208 0.0740685   
     length 2.22549   
     axis 0 0 0   XYZ
    dof rx ry rz
    limits (-20.0 45.0)
           (-30.0 30.0)
           (-30.0 30.0)
  end
  begin
     id 14 
     name lowerneck
     direction 0.0218238 0.996215 0.0841425   
     length 1.77269   
     axis 0 0 0   XYZ
    dof rx ry rz
    limits (-20.0 45.0)
           (-30.0 30.0)
           (-30.0 30.0)
  end
  begin
     id 15 
     name upperneck
     direction -0.00430652 0.994214 -0.107332   
     length 1.76534   
     axis 0 0 0   XYZ
    dof rx ry rz
    limits (-20.0 45.0)
           (-30.0 30.0)
           (-30.0 30.0)
  end
  begin
     id 16
     name head
     direction -0.00328946 0.998959 -0.0454998  
     length 1.82634  
     axis 0 0 0   XYZ
    dof rx ry rz
    limits (-20.0 45.0)
           (-30.0 30.0)
           (-30.0 30.0)
  end
  begin
     id 17 
     name lclavicle
     direction 0.970962 0.239191 0.00450212  
     length 3.84872  
     axis 0 0 0   XYZ
    dof ry rz
    limits (-20.0 10.0)
           (0.0 20.0)
  end
  begin
     id 18 
     name lhumerus
     direction 1 -4.48966e-011 5.74696e-028   
     length 5.22771   
     axis 180 -30 -90   XYZ
    dof rx ry rz
    limits (-60.0 90.0)
           (-90.0 90.0)
           (-90.0 90.0)
  end
  begin
     id 19
     name lradius
     direction 1 -4.4896e-011 4.25109e-027   
     length 3.45251   
     axis 180 -30 -90   XYZ
    dof rx
    limits (-10.0 170.0)
  end
  begin
     id 20
     name lwrist
     direction 1 -4.48971e-011 1.15382e-027   
     length 1.72626   
     axis -5.52449e-016 90 90   XYZ
    dof ry
    limits (-180.0 0.0)
 end
  begin
     id 21 
     name lhand
     direction 1 -4.49034e-011 2.30765e-027   
     length 0.552119   
     axis -1.47248e-015 90 90   XYZ
    dof rx rz
    limits (-90.0 90.0)
           (-45.0 45.0)
  end
  begin
     id 22 
     name lfingers
     direction 1 -4.48951e-011 4.61529e-027   
     length 0.445133   
     axis -2.94495e-015 90 90   XYZ
    dof rx
    limits (0.0 90.0)
  end
  begin
     id 23
     name lthumb
     direction 0.707107 -6.34991e-011 0.707107   
     length 0.639124   
     axis -90 45 2.85299e-015   XYZ
    dof rx rz
    limits (-45.0 45.0)
           (-45.0 45.0)
  end
  begin
     id 24 
     name rclavicle
     direction -0.97424 0.222511 -0.0366699   
     length 3.73439  
     axis 0 0 0   XYZ 
    dof ry rz
    limits (-10.0 20.0)
           (-20.0 0.0)
  end
  begin
     id 25 
     name rhumerus
     direction -1 -4.48956e-011 -4.97258e-028  
     length 5.2398   
     axis 180 30 90   XYZ
    dof rx ry rz
    limits (-90.0 60.0)
           (-90.0 90.0)
           (-90.0 90.0)
  end
  begin
     id 26 
     name rradius
     direction -1 -4.4897e-011 -1.72611e-027   
     length 3.48042   
     axis 180 30 90   XYZ
    dof rx
    limits (-10.0 170.0)
  end
  begin
     id 27 
     name rwrist
     direction -1 -4.48976e-011 1.15382e-027   
     length 1.74021   
     axis -5.52449e-016 -90 -90   XYZ
    dof ry
    limits (-180.0 0.0)
  end
  begin
     id 28
     name rhand
     direction -1 -4.48963e-011 2.30765e-027   
     length 0.618713   
     axis -1.47248e-015 -90 -90   XYZ
    dof rx rz
    limits (-90.0 90.0)
           (-45.0 45.0)
  end
  begin
     id 29
     name rfingers
     direction -1 -4.4888e-011 4.61529e-027   
     length 0.498823   
     axis -2.94495e-015 -90 -90   XYZ
    dof rx
    limits (0.0 90.0)
  end
  begin
     id 30
     name rthumb
     direction -0.707107 -6.34968e-011 0.707107   
     length 0.716213   
     axis -90 -45 -2.85299e-015   XYZ
    dof rx rz
    limits (-45.0 45.0)
           (-45.0 45.0)
  end
:hierarchy
  begin
    root lhipjoint rhipjoint lowerback
    lhipjoint lfemur
    lfemur ltibia
    ltibia lfoot
    lfoot ltoes
    rhipjoint rfemur
    rfemur rtibia
    rtibia rfoot
    rfoot rtoes
    lowerback upperback
    upperback thorax
    thorax lowerneck lclavicle rclavicle
    lowerneck upperneck
    upperneck head
    lclavicle lhumerus
    lhumerus lradius
    lradius lwrist
    lwrist lhand lthumb
    lhand lfingers
    rclavicle rhumerus
    rhumerus rradius
    rradius rwrist
    rwrist rhand rthumb
    rhand rfingers
  end

#!OML:ASF G:\JayActor3\Patient Classification 1\Patient 1\Session 5\male.ASF
:FULLY-SPECIFIED
:DEGREES
128
root 7.25264 14.4495 -6.62274 41.7758 -88.2919 -44.8291
lowerback 18.4363 -1.3721 2.12686
upperback 1.96722 -1.4853 0.219
thorax -8.25619 -0.834997 -0.591982
lowerneck -9.62036 -0.0574186 1.31669
upperneck 5.95332 -0.305954 0.640149
head 3.64845 -0.0911564 -0.0406741
rclavicle -1.63827e-014 9.80878e-015
rhumerus 20.1797 13.9518 -71.0365
rradius 73.4191
rwrist 16.4523
rhand -3.78114 -5.44217
rfingers 7.12502
rthumb 21.9641 -34.2152
lclavicle -1.63827e-014 9.80878e-015
lhumerus 13.3639 -14.9042 73.4495
lradius 82.1574
lwrist -7.55333
lhand 1.79652 20.398
lfingers 7.12502
lthumb 27.31 48.44
rfemur -35.0202 -18.3442 17.0971
rtibia 77.5434
rfoot -34.5844 -13.247
rtoes -12.7088
lfemur -35.0356 17.6584 -12.0097
ltibia 72.9448
lfoot -29.0042 13.0218
ltoes -12.4536
129
root 7.2541 14.4527 -6.63031 38.344 -88.2323 -41.3843
lowerback 18.4545 -1.38429 2.09691
upperback 1.96873 -1.50779 0.20886
thorax -8.26469 -0.84496 -0.579852
lowerneck -9.58644 -0.0641339 1.31396
upperneck 5.86331 -0.311822 0.625835
head 3.61004 -0.0954832 -0.0452046
rclavicle 1.43008e-014 2.5314e-015
rhumerus 20.1087 13.8882 -71.0406
rradius 73.5209
rwrist 16.4403
rhand -3.79132 -5.45062
rfingers 7.12502
rthumb 21.9543 -34.2248
lclavicle 1.43008e-014 2.5314e-015
lhumerus 13.338 -14.9492 73.4524
lradius 82.2114
lwrist -7.53717
lhand 1.80968 20.3936
lfingers 7.12502
lthumb 27.3226 48.4336
rfemur -35.0082 -18.3676 17.092
rtibia 77.5247
rfoot -34.6208 -13.3139
rtoes -12.6557
lfemur -35.048 17.6495 -12.0313
ltibia 72.8711
lfoot -28.9401 12.9286
ltoes -12.5177
130
root 7.2556 14.456 -6.63794 35.4799 -88.1691 -38.512
lowerback 18.477 -1.39302 2.07357
upperback 1.97096 -1.52423 0.200493
thorax -8.2747 -0.85225 -0.571001
lowerneck -9.56082 -0.068976 1.31016
upperneck 5.79142 -0.315495 0.61254
head 3.5797 -0.0985481 -0.0490792
rclavicle 1.73562e-014 -7.48704e-015
rhumerus 20.0389 13.8293 -71.0408
rradius 73.622
rwrist 16.4154
rhand -3.80002 -5.46692
rfingers 7.12502
rthumb 21.946 -34.2421
lclavicle 1.73562e-014 -7.48704e-015
lhumerus 13.3121 -14.994 73.4585
lradius 82.2562
lwrist -7.52855
lhand 1.80791 20.3763
lfingers 7.12502
lthumb 27.3209 48.4166
rfemur -34.9908 -18.3898 17.0947
rtibia 77.5017
rfoot -34.6552 -13.3787
rtoes -12.606
lfemur -35.0517 17.6507 -12.0415
ltibia 72.7943
lfoot -28.8768 12.8307
ltoes -12.5776
131
root 7.25706 14.4595 -6.64562 32.9677 -88.1049 -35.9967
lowerback 18.5023 -1.39949 2.05105
upperback 1.97428 -1.53749 0.192932
thorax -8.28496 -0.85805 -0.562493
lowerneck -9.5428 -0.0709148 1.3068
upperneck 5.73742 -0.3157 0.599481
head 3.55717 -0.099723 -0.0527541
rclavicle 8.46698e-015 2.88393e-015
rhumerus 19.9722 13.7777 -71.038
rradius 73.7207
rwrist 16.3832
rhand -3.8089 -5.48564
rfingers 7.12502
rthumb 21.9375 -34.2618
lclavicle 8.46698e-015 2.88393e-015
lhumerus 13.2855 -15.0352 73.4667
lradius 82.2907
lwrist -7.52455
lhand 1.79689 20.3448
lfingers 7.12502
lthumb 27.3103 48.3867
rfemur -34.9659 -18.4134 17.0987
rtibia 77.4746
rfoot -34.6883 -13.4395
rtoes -12.557
lfemur -35.0459 17.657 -12.046
ltibia 72.7151
lfoot -28.816 12.729
ltoes -12.6271
132
root 7.25837 14.4631 -6.65343 30.8136 -88.0366 -33.8408
lowerback 18.5242 -1.40478 2.03286
upperback 1.9793 -1.54836 0.18697
thorax -8.29153 -0.862815 -0.555418
lowerneck -9.50648 -0.0751482 1.3357
upperneck 5.67059 -0.319907 0.55184
head 3.5265 -0.103764 -0.0737435
rclavicle 3.58472e-015 -4.50993e-015
rhumerus 19.9044 13.7323 -71.0358
rradius 73.8196
rwrist 16.3598
rhand -3.82633 -5.50836
rfingers 7.12502
rthumb 21.9207 -34.2865
lclavicle 3.58472e-015 -4.50993e-015
lhumerus 13.2619 -15.0718 73.475
lradius 82.317
lwrist -7.51981
lhand 1.77775 20.3053
lfingers 7.12502
lthumb 27.292 48.3501
rfemur -34.9379 -18.4376 17.1096
rtibia 77.444
rfoot -34.7215 -13.5002
rtoes -12.5131
lfemur -35.0371 17.6649 -12.0426
ltibia 72.6362
lfoot -28.7585 12.6258
ltoes -12.6701
133
root 7.25961 14.4668 -6.66116 28.9688 -87.9664 -31.9912
lowerback 18.5425 -1.40938 2.01968
upperback 1.98198 -1.55717 0.181816
thorax -8.2987 -0.866725 -0.550886
lowerneck -9.45108 -0.0799806 1.39175
upperneck 5.59358 -0.325772 0.476441
head 3.4885 -0.109304 -0.108693
rclavicle 3.12391e-014 -1.667e-014
rhumerus 19.8362 13.6955 -71.0314
rradius 73.9142
rwrist 16.3463
rhand -3.85262 -5.52682
rfingers 7.12502
rthumb 21.8955 -34.3079
lclavicle 3.12391e-014 -1.667e-014
lhumerus 13.2358 -15.1034 73.4858
lradius 82.3371
lwrist -7.50835
lhand 1.7551 20.2631
lfingers 7.12502
lthumb 27.2704 48.3113
rfemur -34.9123 -18.4608 17.1265
rtibia 77.4107
rfoot -34.7538 -13.5613
rtoes -12.4736
lfemur -35.0305 17.6717 -12.0348
ltibia 72.5585
lfoot -28.7062 12.5203
ltoes -12.6973
134
root 7.26083 14.4704 -6.66884 27.5013 -87.8953 -30.5143
lowerback 18.5547 -1.4132 2.01374
upperback 1.98398 -1.5634 0.178754
thorax -8.3033 -0.869571 -0.548989
lowerneck -9.38037 -0.0849241 1.47248
upperneck 5.50386 -0.33253 0.375243
head 3.44311 -0.115932 -0.156418
rclavicle -6.67598e-015 -1.58096e-015
rhumerus 19.7707 13.6675 -71.025
rradius 74.0036
rwrist 16.3433
rhand -3.88744 -5.53836
rfingers 7.12502
rthumb 21.862 -34.3233
lclavicle -6.67598e-015 -1.58096e-015
lhumerus 13.2109 -15.1252 73.5
lradius 82.351
lwrist -7.48588
lhand 1.73169 20.2194
lfingers 7.12502
lthumb 27.248 48.2711
rfemur -34.8918 -18.4791 17.154
rtibia 77.3758
rfoot -34.7865 -13.6211
rtoes -12.4314
lfemur -35.0294 17.6787 -12.0197
ltibia 72.4837
lfoot -28.6557 12.4182
ltoes -12.7214
135
root 7.26204 14.474 -6.67631 26.0943 -87.8276 -29.0955
lowerback 18.5636 -1.41516 2.00804
upperback 1.98651 -1.5674 0.173692
thorax -8.30552 -0.871372 -0.550045
lowerneck -9.30892 -0.0902863 1.56199
upperneck 5.4135 -0.340422 0.266928
head 3.39746 -0.123206 -0.207976
rclavicle -2.0721e-014 9.26212e-015
rhumerus 19.7072 13.6438 -71.0162
rradius 74.0859
rwrist 16.3495
rhand -3.93065 -5.54044
rfingers 7.12502
rthumb 21.8206 -34.3303
lclavicle -2.0721e-014 9.26212e-015
lhumerus 13.1886 -15.1412 73.5176
lradius 82.3614
lwrist -7.45127
lhand 1.70888 20.1839
lfingers 7.12502
lthumb 27.2261 48.239
rfemur -34.8743 -18.4971 17.1769
rtibia 77.3405
rfoot -34.816 -13.6797
rtoes -12.3951
lfemur -35.03 17.6832 -12.0104
ltibia 72.4108
lfoot -28.6088 12.3225
ltoes -12.7454
136
root 7.26343 14.4775 -6.68363 24.8549 -87.7607 -27.8444
lowerback 18.573 -1.41638 2.005
upperback 1.98925 -1.56985 0.169096
thorax -8.30778 -0.872522 -0.55249
lowerneck -9.24768 -0.0918458 1.64239
upperneck 5.33626 -0.34357 0.173357
head 3.35854 -0.127574 -0.252749
rclavicle 2.11581e-014 -1.06567e-014
rhumerus 19.6483 13.6281 -71.0029
rradius 74.1595
rwrist 16.351
rhand -3.97864 -5.53653
rfingers 7.12502
rthumb 21.7745 -34.3317
lclavicle 2.11581e-014 -1.06567e-014
lhumerus 13.1667 -15.1486 73.5405
lradius 82.3682
lwrist -7.40838
lhand 1.68982 20.1567
lfingers 7.12502
lthumb 27.2079 48.2147
rfemur -34.8574 -18.5133 17.2014
rtibia 77.3047
rfoot -34.8443 -13.7344
rtoes -12.3532
lfemur -35.0323 17.6862 -12.0002
ltibia 72.3403
lfoot -28.5626 12.2339
ltoes -12.7699
137
root 7.26494 14.4809 -6.6908 23.7154 -87.6964 -26.6953
lowerback 18.5846 -1.41647 2.00372
upperback 1.99297 -1.57056 0.163295
thorax -8.31024 -0.872935 -0.557642
lowerneck -9.20991 -0.0884552 1.69795
upperneck 5.28634 -0.34035 0.114403
head 3.33383 -0.127641 -0.281479
rclavicle 1.15466e-015 -2.80473e-015
rhumerus 19.5962 13.6187 -70.9834
rradius 74.2223
rwrist 16.3372
rhand -4.02535 -5.53087
rfingers 7.12502
rthumb 21.7296 -34.3312
lclavicle 1.15466e-015 -2.80473e-015
lhumerus 13.1464 -15.1505 73.5659
lradius 82.3718
lwrist -7.36633
lhand 1.67472 20.1325
lfingers 7.12502
lthumb 27.1935 48.1928
rfemur -34.8396 -18.529 17.2235
rtibia 77.2693
rfoot -34.8674 -13.7885
rtoes -12.3163
lfemur -35.0331 17.6885 -11.9911
ltibia 72.2719
lfoot -28.5172 12.1521
ltoes -12.7924
138
root 7.26662 14.4842 -6.69794 22.654 -87.6319 -25.6284
lowerback 18.6011 -1.41639 2.00493
upperback 1.99768 -1.57066 0.156035
thorax -8.31441 -0.873195 -0.565839
lowerneck -9.1991 -0.0794557 1.7243
upperneck 5.26912 -0.32997 0.0970759
head 3.32585 -0.122791 -0.291142
rclavicle 1.27797e-014 -1.0899e-014
rhumerus 19.5501 13.6149 -70.9583
rradius 74.2737
rwrist 16.2979
rhand -4.06588 -5.52793
rfingers 7.12502
rthumb 21.6907 -34.3328
lclavicle 1.27797e-014 -1.0899e-014
lhumerus 13.1275 -15.1491 73.5913
lradius 82.3707
lwrist -7.33621
lhand 1.66153 20.0999
lfingers 7.12502
lthumb 27.1808 48.1621
rfemur -34.8177 -18.5452 17.2437
rtibia 77.2339
rfoot -34.8894 -13.8357
rtoes -12.2725
lfemur -35.0311 17.6876 -11.9818
ltibia 72.2055
lfoot -28.4713 12.0796
ltoes -12.8187
139
root 7.26836 14.4875 -6.705 21.5628 -87.5718 -24.5365
lowerback 18.6208 -1.41553 2.00078
upperback 2.00391 -1.57103 0.146537
thorax -8.31857 -0.873469 -0.573294
lowerneck -9.22094 -0.063157 1.71144
upperneck 5.29289 -0.309854 0.131242
head 3.33855 -0.111488 -0.276641
rclavicle -1.32324e-014 -5.5287e-016
rhumerus 19.5114 13.6197 -70.9305
rradius 74.3127
rwrist 16.2319
rhand -4.09714 -5.52888
rfingers 7.12502
rthumb 21.6607 -34.3372
lclavicle -1.32324e-014 -5.5287e-016
lhumerus 13.1081 -15.143 73.6152
lradius 82.365
lwrist -7.32586
lhand 1.64945 20.0509
lfingers 7.12502
lthumb 27.1693 48.1149
rfemur -34.7909 -18.5617 17.2549
rtibia 77.1986
rfoot -34.908 -13.8774
rtoes -12.2348
lfemur -35.0223 17.6816 -11.9789
ltibia 72.1387
lfoot -28.4281 12.0179
ltoes -12.8328
140
root 7.26995 14.4909 -6.71201 20.5608 -87.5146 -23.5352
lowerback 18.638 -1.41404 1.99761
upperback 2.01038 -1.57058 0.135429
thorax -8.32118 -0.873397 -0.58331
lowerneck -9.24562 -0.0454188 1.69166
upperneck 5.32844 -0.28829 0.180698
head 3.35591 -0.0988866 -0.255834
rclavicle -7.27816e-015 2.54072e-015
rhumerus 19.4745 13.6323 -70.9018
rradius 74.343
rwrist 16.1429
rhand -4.11772 -5.5385
rfingers 7.12502
rthumb 21.6409 -34.3491
lclavicle -7.27816e-015 2.54072e-015
lhumerus 13.0872 -15.1368 73.6348
lradius 82.3554
lwrist -7.33709
lhand 1.63201 19.9849
lfingers 7.12502
lthumb 27.1526 48.0515
rfemur -34.7621 -18.5755 17.2654
rtibia 77.1621
rfoot -34.9255 -13.9174
rtoes -12.2001
lfemur -35.0094 17.6705 -11.9768
ltibia 72.0714
lfoot -28.3863 11.9687
ltoes -12.8431
141
root 7.27145 14.4946 -6.71886 19.6012 -87.461 -22.575
lowerback 18.6498 -1.41184 1.9944
upperback 2.01656 -1.56943 0.122555
thorax -8.32118 -0.87299 -0.595513
lowerneck -9.27344 -0.0277379 1.66558
upperneck 5.37529 -0.267092 0.241733
head 3.37783 -0.0860217 -0.230135
rclavicle -1.59432e-014 2.61526e-015
rhumerus 19.4425 13.6529 -70.8693
rradius 74.3614
rwrist 16.0399
rhand -4.13138 -5.54651
rfingers 7.12502
rthumb 21.6278 -34.3586
lclavicle -1.59432e-014 2.61526e-015
lhumerus 13.0635 -15.1316 73.6513
lradius 82.3432
lwrist -7.36682
lhand 1.60864 19.9067
lfingers 7.12502
lthumb 27.1303 47.9768
rfemur -34.7352 -18.587 17.2738
rtibia 77.1246
rfoot -34.9396 -13.9605
rtoes -12.1784
lfemur -34.9949 17.6514 -11.979
ltibia 72.0028
lfoot -28.3477 11.9309
ltoes -12.8394
142
root 7.27283 14.4983 -6.72555 18.783 -87.4126 -21.7536
lowerback 18.656 -1.40848 1.99301
upperback 2.02082 -1.56633 0.110261
thorax -8.32013 -0.871666 -0.608722
lowerneck -9.29836 -0.0110465 1.63253
upperneck 5.4287 -0.247032 0.311177
head 3.40146 -0.0734605 -0.200474
rclavicle -9.75753e-015 -4.37326e-015
rhumerus 19.4152 13.6835 -70.8309
rradius 74.3689
rwrist 15.9346
rhand -4.13555 -5.55658
rfingers 7.12502
rthumb 21.6238 -34.3692
lclavicle -9.75753e-015 -4.37326e-015
lhumerus 13.035 -15.1267 73.667
lradius 82.3265
lwrist -7.4054
lhand 1.57732 19.8252
lfingers 7.12502
lthumb 27.1003 47.9
rfemur -34.7118 -18.5921 17.2864
rtibia 77.0855
rfoot -34.9544 -14.0021
rtoes -12.1504
lfemur -34.9807 17.6265 -11.9807
ltibia 71.9334
lfoot -28.3102 11.904
ltoes -12.8237
